<?xml version="1.0" standalone="no"?>
<!DOCTYPE svg PUBLIC "-//W3C//DTD SVG 20010904//EN"
 "http://www.w3.org/TR/2001/REC-SVG-20010904/DTD/svg10.dtd">
<svg version="1.0" xmlns="http://www.w3.org/2000/svg"
 width="700.000000pt" height="700.000000pt" viewBox="0 0 700.000000 700.000000"
 preserveAspectRatio="xMidYMid meet">
<metadata>
Created by potrace 1.11, written by Peter Selinger 2001-2013
</metadata>
<g transform="translate(0.000000,700.000000) scale(0.100000,-0.100000)"
fill="#000000" stroke="none">
<path d="M4625 6406 c-36 -16 -64 -46 -70 -75 -2 -11 7 -63 20 -114 13 -52 27
-114 30 -138 4 -24 8 -46 10 -49 15 -24 22 -267 10 -320 -6 -25 -11 -48 -19
-85 -16 -74 -68 -180 -129 -261 -53 -69 -64 -103 -48 -142 23 -53 73 -74 138
-58 63 15 179 174 223 305 39 119 55 224 55 381 0 147 -6 192 -44 361 -42 188
-85 235 -176 195z"/>
<path d="M4050 6183 c-77 -69 -28 -193 76 -193 60 0 119 63 109 116 -2 10 -4
25 -4 32 -1 8 -15 27 -32 43 -43 40 -106 41 -149 2z"/>
<path d="M5205 6170 c-39 -16 -66 -56 -67 -99 -1 -64 33 -103 97 -115 59 -11
125 49 125 114 0 74 -85 129 -155 100z"/>
<path d="M5794 5856 c-295 -99 -525 -271 -684 -513 -39 -59 -70 -110 -68 -113
2 -3 -6 -18 -18 -35 -32 -47 -94 -209 -94 -248 0 -45 31 -84 80 -98 63 -19 94
0 131 80 17 36 47 100 66 141 139 293 359 481 685 585 125 40 163 87 132 164
-33 80 -77 87 -230 37z"/>
<path d="M6108 5442 c-34 -4 -81 -52 -89 -91 -14 -66 43 -131 114 -131 87 0
138 112 83 182 -18 24 -75 45 -108 40z"/>
<path d="M3963 5415 c-57 -24 -81 -108 -47 -161 52 -79 171 -62 201 29 30 90
-63 170 -154 132z"/>
<path d="M3360 5320 c-25 -5 -65 -11 -90 -15 -24 -4 -47 -8 -50 -10 -3 -2 -22
-6 -42 -9 -84 -13 -285 -85 -413 -149 -115 -56 -186 -101 -300 -186 -263 -196
-481 -475 -605 -772 l-32 -76 -68 18 c-222 58 -516 44 -740 -36 -186 -67 -340
-164 -485 -309 -191 -190 -304 -399 -361 -666 -19 -88 -26 -347 -12 -440 20
-130 86 -325 148 -435 88 -157 267 -354 405 -447 143 -96 351 -183 485 -204
14 -2 52 -8 85 -13 83 -13 4514 -13 4580 0 28 5 66 12 85 15 53 9 177 52 250
87 191 91 374 258 486 442 72 119 132 284 152 420 9 63 9 264 0 330 -18 128
-99 355 -149 419 -11 13 -19 27 -19 30 0 16 -109 147 -174 210 -168 162 -413
282 -617 302 -70 7 -126 -10 -514 -151 -575 -209 -759 -276 -770 -279 -5 -2
-17 -6 -25 -9 -8 -3 -80 -29 -160 -58 -205 -72 -359 -128 -400 -144 -31 -12
-218 -80 -530 -191 -83 -30 -172 -56 -235 -70 -36 -8 -130 -5 -155 4 -51 20
-82 77 -81 152 0 37 81 302 121 395 5 11 17 47 28 80 23 69 109 317 213 615
39 113 79 230 89 260 10 30 53 154 95 275 150 429 158 455 152 508 -3 38 -11
56 -36 80 l-31 32 -118 1 c-64 1 -137 -2 -162 -6z"/>
<path d="M6539 4913 c-53 -26 -75 -87 -53 -142 29 -72 113 -93 173 -43 37 31
51 91 29 131 -29 54 -98 79 -149 54z"/>
<path d="M5730 4789 c-102 -26 -290 -110 -327 -145 -26 -25 -53 -81 -53 -110
0 -35 38 -83 67 -85 57 -3 95 8 180 51 190 97 257 104 455 44 111 -33 152 -32
189 5 21 21 29 39 29 63 -1 86 -75 133 -268 174 -107 22 -196 23 -272 3z"/>
<path d="M5640 4213 c-83 -26 -114 -99 -71 -169 38 -63 128 -70 175 -13 14 17
27 37 27 45 1 8 2 20 3 27 9 58 -77 128 -134 110z"/>
</g>
</svg>
